PathFileType	4	(X/Y/Z)	..\data\2014034\dynamic\2014034_C4_04.trc
DataRate	CameraRate	NumFrames	NumMarkers	Units	OrigDataRate	OrigDataStartFrame	OrigNumFrames
100.000000	100.000000	4	52	mm	100.000000	112	180
Frame#	Time	L_IAS			L_IPS			R_IPS			R_IAS			L_FTC			L_FLE			L_FME			L_FAX			L_TTC			L_FAL			L_TAM			L_FCC			L_FM1			L_FM2			L_FM5			R_FTC			R_FLE			R_FME			R_FAX			R_TTC			R_FAL			R_TAM			R_FCC			R_FM1			R_FM2			R_FM5			CV7			TV10			SXS			SJN			L_SIA			L_SRS			L_SAA			L_SAE			L_HLE			L_HME			L_UOA			L_RSP			L_UHE			L_HM2			L_HM5			R_SIA			R_SRS			R_SAA			R_SAE			R_HLE			R_HME			R_UOA			R_RSP			R_UHE			R_HM2			R_HM5			
		X1	Y1	Z1	X2	Y2	Z2	X3	Y3	Z3	X4	Y4	Z4	X5	Y5	Z5	X6	Y6	Z6	X7	Y7	Z7	X8	Y8	Z8	X9	Y9	Z9	X10	Y10	Z10	X11	Y11	Z11	X12	Y12	Z12	X13	Y13	Z13	X14	Y14	Z14	X15	Y15	Z15	X16	Y16	Z16	X17	Y17	Z17	X18	Y18	Z18	X19	Y19	Z19	X20	Y20	Z20	X21	Y21	Z21	X22	Y22	Z22	X23	Y23	Z23	X24	Y24	Z24	X25	Y25	Z25	X26	Y26	Z26	X27	Y27	Z27	X28	Y28	Z28	X29	Y29	Z29	X30	Y30	Z30	X31	Y31	Z31	X32	Y32	Z32	X33	Y33	Z33	X34	Y34	Z34	X35	Y35	Z35	X36	Y36	Z36	X37	Y37	Z37	X38	Y38	Z38	X39	Y39	Z39	X40	Y40	Z40	X41	Y41	Z41	X42	Y42	Z42	X43	Y43	Z43	X44	Y44	Z44	X45	Y45	Z45	X46	Y46	Z46	X47	Y47	Z47	X48	Y48	Z48	X49	Y49	Z49	X50	Y50	Z50	X51	Y51	Z51	X52	Y52	Z52	

113	1.12	1374.6943359375	1003.1640625	-375.7895202636719	1162.569946289063	1031.474487304688	-282.9808349609376	1163.5361328125	1045.9287109375	-189.3934631347657	1376.872680664063	1018.295715332031	-97.09626770019534	1292.781860351563	936.912292480469	-422.2277221679689	1456.181762695313	516.4027099609376	-403.0940246582032	1475.78076171875	508.1057128906251	-254.9924468994141	1457.123291015625	456.1427612304689	-406.4555053710939	1544.060546875	478.0195312500001	-360.3224792480469	1592.232666015625	84.27320861816408	-409.2144470214845	1616.866943359375	101.823112487793	-315.0025024414063	1565.483764648438	17.59284210205078	-357.7384338378907	1765.509155273438	90.08502197265626	-323.7048645019532	1765.412353515625	100.8817291259766	-382.3325195312501	1739.015747070313	66.72988128662111	-424.7671203613282	1269.094604492188	951.475280761719	-47.12751007080079	1168.428588867188	521.9141235351564	-104.8370361328125	1188.738891601563	506.1794738769532	-246.6532592773438	1138.642578125	468.9295043945314	-105.7866744995117	1203.952270507813	434.9013671875001	-159.810531616211	987.7048339843752	96.05715179443362	-133.4632263183594	1022.348022460938	99.64112854003909	-229.9788208007813	933.314880371094	53.24130249023439	-189.3955688476563	1151.817504882813	17.46542930603028	-199.7020416259766	1154.542358398438	37.67103958129884	-134.6231994628907	1101.476806640625	22.61193656921387	-90.69846343994142	1253.10205078125	1556.907836914063	-251.9910736083985	1152.259887695313	1291.422241210938	-238.1700286865235	1429.4130859375	1246.489624023438	-261.1398315429688	1371.988525390625	1455.467651367188	-251.8223724365235	1134.625366210938	1325.839477539063	-341.1599731445313	1194.84375	1482.576538085938	-359.1235046386719	1249.375366210938	1480.0830078125	-441.6898803710939	1315.485595703125	1459.641845703125	-466.9915771484376	1186.469482421875	1131.980224609375	-493.517791748047	1150.693603515625	1144.360229492188	-401.4799194335939	1140.243408203125	1126.391357421875	-459.9576416015626	1206.1708984375	853.8204345703127	-434.6524353027345	1152.249389648438	868.6213989257815	-500.9840087890626	1210.716674804688	745.6635131835939	-439.058074951172	1114.783813476563	779.1475219726565	-492.0061340332032	1152.187255859375	1326.600341796875	-134.128662109375	1203.262939453125	1480.20556640625	-139.6230926513672	1257.633178710938	1481.421752929688	-67.20994567871095	1314.354370117188	1477.632080078125	-45.08498764038087	1305.837036132813	1138.146240234375	40.70463180541993	1284.531982421875	1108.407958984375	-47.60216140747071	1273.651611328125	1097.653686523438	8.570221900939943	1526.399536132813	945.248474121094	25.53977584838868	1467.67626953125	909.7169189453127	67.6985321044922	1598.289184570313	885.757263183594	45.5370216369629	1507.671875	820.4202880859377	60.46498107910158	
114	1.13	1388.813110351563	1000.766418457031	-376.7528686523438	1176.296508789063	1029.66796875	-285.2969055175782	1176.8701171875	1044.637451171875	-191.8300170898438	1389.687133789063	1016.786987304688	-97.98686218261722	1306.581298828125	934.4990234375002	-423.5626831054689	1466.5791015625	513.5099487304689	-402.8212280273439	1487.459716796875	506.0933532714845	-254.6996154785157	1468.585205078125	453.119598388672	-405.7630615234376	1555.868408203125	477.2743530273439	-360.7972717285157	1613.3232421875	84.06261444091798	-408.4345092773439	1638.43310546875	102.7444152832032	-314.5976257324219	1588.58984375	16.82018661499024	-356.4568481445313	1787.583862304688	94.31197357177736	-324.4157409667969	1786.800170898438	104.4782180786133	-383.0547485351563	1760.6796875	69.39869689941408	-424.9655151367189	1281.34423828125	950.8240356445315	-48.40065002441408	1177.788940429688	521.8180541992189	-104.7706298828125	1198.9599609375	505.3020324707032	-246.3167114257813	1147.221435546875	469.1826477050782	-105.6159362792969	1212.254028320313	433.9752502441407	-159.2605133056641	989.2646484375002	98.88688659667972	-132.268798828125	1023.607238769531	102.2453079223633	-228.8054351806641	933.9276123046877	57.39918136596681	-188.2356719970703	1151.86376953125	17.68150711059571	-199.4384765625001	1154.566650390625	37.75495910644532	-134.2070465087891	1101.675415039063	22.33880043029786	-90.36081695556642	1266.276000976563	1555.015625	-254.4752960205079	1165.892333984375	1289.480102539063	-240.5013275146485	1443.106689453125	1245.08447265625	-263.5646972656251	1385.3671875	1453.874755859375	-254.3678894042969	1148.187133789063	1323.577270507813	-343.3114318847657	1208.177124023438	1480.566528320313	-361.5085754394532	1262.632568359375	1478.135131835938	-444.1596069335939	1328.637817382813	1457.6142578125	-469.5882873535157	1197.437744140625	1130.537475585938	-494.3172607421876	1162.142822265625	1143.627319335938	-402.2095642089845	1151.304565429688	1125.641479492188	-460.6572265625001	1213.893432617188	852.4006347656252	-435.0275878906251	1160.14453125	867.615173339844	-501.2567749023439	1216.84423828125	744.1182861328126	-438.5835876464845	1121.324340820313	778.6704711914065	-491.6425170898439	1165.910766601563	1324.675659179688	-136.3840484619141	1216.622802734375	1478.484497070313	-141.9772186279297	1271.260986328125	1479.765502929688	-69.67170715332033	1327.954223632813	1476.099487304688	-47.62981796264649	1319.486083984375	1136.917724609375	38.91417312622071	1298.3203125	1106.854125976563	-49.36615371704103	1287.478515625	1096.14306640625	6.810567855834963	1541.41162109375	945.860046386719	24.21671867370606	1482.910278320313	909.5952758789065	66.06324005126955	1613.898315429688	887.3884887695315	44.85607910156251	1524.142211914063	820.658386230469	58.94543075561525	
115	1.14	1403.053588867188	998.5576782226565	-377.7930908203126	1190.156494140625	1027.97607421875	-287.7494201660157	1190.39794921875	1043.369384765625	-194.3593444824219	1402.628662109375	1015.367309570313	-98.88559722900393	1320.61181640625	932.416198730469	-425.0471191406251	1477.769165039063	511.1221313476564	-402.7303161621095	1500.0234375	504.6875915527345	-254.6685180664063	1480.440063476563	450.549041748047	-405.2071228027345	1568.035034179688	476.4874267578126	-361.3620300292969	1631.197387695313	83.57127380371095	-407.460906982422	1656.75341796875	103.1265258789063	-313.9331359863282	1607.812255859375	16.13840484619141	-355.0671997070313	1806.200439453125	96.76031494140628	-324.6486511230469	1804.832397460938	106.3217010498047	-383.2986755371094	1778.8359375	70.63283538818361	-424.7347106933595	1293.781616210938	950.2479248046877	-49.80823898315431	1187.7392578125	521.7490844726564	-104.5641860961914	1209.63818359375	504.3426208496095	-245.8500518798829	1156.391479492188	469.4573974609376	-105.2313690185547	1221.0693359375	433.043670654297	-158.5056610107422	991.0313110351565	102.0184020996094	-130.7305755615235	1025.027709960938	105.1238708496094	-227.2580871582032	934.6738281250002	61.98231887817384	-186.7094879150391	1151.915405273438	17.84520530700684	-199.1346435546876	1154.641845703125	37.80691528320313	-133.7452850341797	1101.982788085938	21.93241500854493	-89.92347717285158	1279.628540039063	1553.271118164063	-257.1658325195313	1179.664916992188	1287.70849609375	-242.9359588623047	1456.929565429688	1243.784545898438	-266.0773315429688	1398.8935546875	1452.39306640625	-257.0585021972657	1161.904418945313	1321.448486328125	-345.6497192382813	1221.689453125	1478.690551757813	-364.1018371582032	1276.09619140625	1476.266235351563	-446.8154296875001	1342.01123046875	1455.642700195313	-472.3215637207032	1208.836059570313	1129.126220703125	-495.3147277832032	1173.912353515625	1142.897094726563	-403.1749877929689	1162.732788085938	1124.889526367188	-461.605926513672	1222.204467773438	851.0769042968752	-435.5901184082032	1168.70263671875	866.6353149414065	-501.7318420410157	1223.717529296875	742.6961669921876	-438.2642517089845	1128.620971679688	778.2092895507815	-491.4862060546876	1179.677978515625	1322.905029296875	-138.8590850830078	1230.074340820313	1476.928344726563	-144.5479888916016	1284.880004882813	1478.259521484375	-72.30317687988283	1341.600341796875	1474.6884765625	-50.3340301513672	1332.896362304688	1135.824584960938	36.95674896240235	1311.85107421875	1105.439331054688	-51.30229949951173	1301.00927734375	1094.80419921875	4.882222652435304	1555.819580078125	946.1755371093752	22.73261833190918	1497.511840820313	909.322204589844	64.36853027343751	1628.786254882813	888.627868652344	43.94687271118165	1539.79931640625	820.6838378906252	57.34987258911134	
116	1.15	1417.385986328125	996.5888671875002	-378.9506530761719	1204.132202148438	1026.440185546875	-290.2742614746094	1204.123657226563	1042.142578125	-196.9175109863282	1415.75341796875	1014.066650390625	-99.84334564208987	1334.842163085938	930.7318115234377	-426.6653747558595	1489.83544921875	509.2884216308595	-402.8321228027345	1513.489013671875	503.8744506835939	-254.9111633300782	1492.780883789063	448.4787597656251	-404.8276977539064	1580.638793945313	475.6627502441407	-361.9906921386719	1646.007568359375	82.72007751464845	-406.3578491210939	1671.977783203125	102.8497695922852	-313.0533752441407	1623.236083984375	15.48552227020264	-353.6407470703126	1821.518310546875	97.19394683837893	-324.3903198242188	1819.682495117188	106.2005920410157	-383.0541076660157	1793.649658203125	70.24814605712892	-424.0962524414064	1306.449340820313	949.7351684570315	-51.34090423583986	1198.3466796875	521.7043457031251	-104.2154769897461	1220.810546875	503.2890930175782	-245.2511138916016	1166.201171875	469.7601013183595	-104.6307983398438	1230.451171875	432.096893310547	-157.5147399902344	993.0479736328127	105.487174987793	-128.896957397461	1026.723388671875	108.2911224365235	-225.3585968017579	935.639831542969	67.04075622558595	-184.8870697021485	1151.96875	17.9399642944336	-198.8028106689454	1154.766235351563	37.81655502319337	-133.2579803466797	1102.385986328125	21.40911102294922	-89.41206359863283	1293.174072265625	1551.7109375	-260.0699157714844	1193.5673828125	1286.150146484375	-245.4653472900391	1470.872802734375	1242.6015625	-268.6816711425782	1412.572998046875	1451.045166015625	-259.8995971679688	1175.765502929688	1319.505737304688	-348.1676330566407	1235.386474609375	1476.97998046875	-366.9027709960938	1289.764892578125	1474.500610351563	-449.6590881347657	1355.601196289063	1453.753295898438	-475.201629638672	1220.679077148438	1127.756591796875	-496.5124511718751	1186.00732421875	1142.181640625	-404.3807067871095	1174.556030273438	1124.13818359375	-462.8013000488282	1231.126586914063	849.8498535156252	-436.338592529297	1177.946044921875	865.684265136719	-502.4144897460939	1231.35546875	741.3918457031251	-438.1072998046876	1136.694213867188	777.7645263671877	-491.5501403808595	1193.474975585938	1321.329956054688	-141.5609893798828	1243.628784179688	1475.5751953125	-147.3367767333985	1298.520385742188	1476.941284179688	-75.10680389404298	1355.306640625	1473.429931640625	-53.19899749755861	1346.078002929688	1134.899658203125	34.83640670776368	1325.1298828125	1104.193359375	-53.40855026245119	1314.246337890625	1093.671264648438	2.78615689277649	1569.617431640625	946.189880371094	21.0996265411377	1511.462280273438	908.9041137695315	62.63467025756837	1642.939086914063	889.4512329101565	42.81510925292969	1554.605102539063	820.4984130859377	55.70316696166994	
